<svg xmlns="http://www.w3.org/2000/svg" xmlns:xlink="http://www.w3.org/1999/xlink" version="1.1" id="Layer_1" x="0px" y="0px" width="101px" height="75px" viewBox="79 94.3 101 75" xml:space="preserve">
<style type="text/css">
 .st1{fill:#84CAA0;}
 .st2{fill:#77B893;}
 .st3{fill:#75C7E0;}
 .st4{fill:#62A5BB;}
 .st5{fill:#DCDB77;}
 .st6{fill:#C5C56C;}
 .st7{fill:#F7963F;}
 .st8{fill:#E18837;}
</style>
 <g>
  <polygon class="st1" points="116.3,130.9 104.4,119 116.3,107.1"/>
  <polygon class="st2" points="116.3,130.9 128.2,119 116.3,107.1"/>
  <polygon class="st3" points="117.1,106.3 129,94.3 140.9,106.3"/>
  <polygon class="st4" points="117.1,106.3 129,118.2 140.9,106.3"/>
  <polygon class="st3" points="103.6,118.2 91.7,106.3 103.6,94.3"/>
  <polygon class="st4" points="103.6,118.2 115.6,106.3 103.6,94.3"/>
  <polygon class="st5" points="141.7,156.3 129.8,144.4 141.7,132.5"/>
  <polygon class="st6" points="141.7,156.3 153.6,144.4 141.7,132.5"/>
  <polygon class="st1" points="129,143.6 117.1,131.7 129,119.8"/>
  <polygon class="st2" points="129,143.6 140.9,131.7 129,119.8"/>
  <polygon class="st1" points="154.4,118.2 142.5,106.3 154.4,94.3"/>
  <polygon class="st2" points="154.4,118.2 166.4,106.3 154.4,94.3"/>
  <polygon class="st5" points="129.8,119 141.7,107.1 153.6,119"/>
  <polygon class="st6" points="129.8,119 141.7,130.9 153.6,119"/>
  <polygon class="st3" points="91.7,131.6 103.6,119.7 115.6,131.6"/>
  <polygon class="st4" points="91.7,131.6 103.6,143.6 115.6,131.6"/>
  <polygon class="st3" points="104.4,144.4 116.4,132.4 128.3,144.4"/>
  <polygon class="st4" points="104.4,144.3 116.4,156.3 128.3,144.3"/>
  <polygon class="st1" points="117.1,157.1 129.1,145.1 141,157.1"/>
  <polygon class="st2" points="117.1,157.1 129.1,169 141,157.1"/>
  <polygon class="st1" points="154.4,169 142.5,157.1 154.4,145.1"/>
  <polygon class="st2" points="154.4,169 166.4,157.1 154.4,145.1"/>
  <polygon class="st3" points="90.9,156.3 79,144.3 90.9,132.4"/>
  <polygon class="st4" points="90.9,156.3 102.9,144.3 90.9,132.4"/>
  <polygon class="st3" points="79,119 90.9,107.1 102.9,119"/>
  <polygon class="st4" points="79,119 90.9,130.9 102.9,119"/>
  <polygon class="st3" points="103.7,169 91.7,157.1 103.7,145.1"/>
  <polygon class="st4" points="103.6,169 115.6,157.1 103.6,145.1"/>
  <polygon class="st7" points="142.5,131.7 154.4,119.8 166.4,131.7"/>
  <polygon class="st8" points="142.5,131.7 154.4,143.6 166.4,131.7"/>
  <polygon class="st5" points="155.2,144.4 167.1,132.5 179.1,144.4"/>
  <polygon class="st6" points="155.2,144.4 167.1,156.3 179.1,144.4"/>
  <polygon class="st5" points="167.1,130.9 155.2,119 167.1,107.1"/>
  <polygon class="st6" points="167.1,130.9 179.1,119 167.1,107.1"/>
</g>
</svg>
